<svg xmlns="http://www.w3.org/2000/svg" viewBox="0 0 90.23 202.92"><defs><style>.cls-1{fill:#ba2025;}</style></defs><title>Asset 2</title><g id="Layer_2" data-name="Layer 2"><g id="Layer_1-2" data-name="Layer 1"><path class="cls-1" d="M40.31,99.79c3,.39,5-2.5,5.4-4.26.44.07.91.13,1.38.22L71,100.51c3,.6,6,1.23,9.07,1.78a2.33,2.33,0,0,1,1.7,1,4,4,0,0,0,.32.38l.68-.18c-.33,1.32-.66,2.56-1,3.8-1.77,7.24-4,14.35-6.38,21.4-1.6,4.72-3.35,9.4-5.2,14-1.61,4-3.45,7.95-5.18,11.92s-4,7.85-6,11.77c-2.18,4.27-4.93,8.2-7.41,12.29-.34.55-.75,1.06-1.18,1.66L29.36,167.62c.9-3.82,1.34-9.73-3.68-11.62Q33,127.93,40.31,99.79Z"/><path class="cls-1" d="M62.37,29.2c.58-.23,1.14-.49,1.73-.69l18.8-6.37c1.41-.47,2.81-1,4.31-1.49.15.62.25,1.15.4,1.67a54.64,54.64,0,0,1,1.58,8.89c.16,1.37.34,2.74.49,4.12.09.79.17,1.58.2,2.38.08,2.21.14,4.43.22,6.65,0,1.24.08,2.49.13,3.73a1.17,1.17,0,0,1-.38,1q-4.38,4-8.74,8l-7.46,6.94c-2.52,2.32-5.06,4.63-7.58,7-1.73,1.6-3.44,3.21-5.25,4.9-.82-1-1.63-2-2.42-3-2.65-3.29-5.29-6.59-8-9.86a1.22,1.22,0,0,1-.25-1.23q1.5-5.67,3-11.36c2-7.67,4-15.55,4-15.55C62.78,34.88,62.64,30.22,62.37,29.2Z"/><path class="cls-1" d="M39.52,99.67c-5.11,19.62-9.5,36.43-14.63,56.12-2.64-.19-7.37,2.22-8.38,7.09-1.14-.07-1.1,0-2.2-.14a1.18,1.18,0,0,1-.59-.37L5,153.45c-1.24-1.27-2.47-2.54-3.76-3.75a3.06,3.06,0,0,1-1-2.76c.25-2.83.42-5.66.62-8.49A2.19,2.19,0,0,1,1.46,137c3.71-3.88,7.39-7.8,11.09-11.69,2.32-2.44,4.66-4.86,7-7.3,2.87-3,5.71-6,8.57-9.07l4.45-4.67c1.79-1.88,3.57-3.77,5.36-5.66A3.35,3.35,0,0,0,39.52,99.67Z"/><path class="cls-1" d="M39.36,90.68c-.69-1.14-1.26-2-1.93-3.13q-6-10.3-12.08-20.63c-1.48-2.55-3-5.09-4.48-7.62A1.29,1.29,0,0,1,20.79,58c2-4.29,3.9-8.58,5.87-12.86.81-1.76,1.7-3.49,2.55-5.23.17-.33.36-.66.59-1.09a6.83,6.83,0,0,1,.55.57Q39.47,50.67,48.6,62A1.62,1.62,0,0,1,49,63.61Q46,75,43,86.42c-.48,1.84-.37,1.45-.85,3.29C40.78,89.92,39.82,90.08,39.36,90.68Z"/><path class="cls-1" d="M83.22,102c-.88-.16-1.56-.19-2.13-.9Q71.7,89.34,62.23,77.67l-.64-.8c.33-.71,27.32-25,28.52-25.9C89.8,68.27,87.07,85.13,83.22,102Z"/><path class="cls-1" d="M20.26,59.56C27,71.17,32,79.78,38.71,91.31c-.88.35-1.49,2.66-1.66,3.7-3.25.72-7,1.49-10.21,2.22l-19.45,4.4c-.13,0-.26,0-.39.06C6.74,98.52,16.83,66.41,20.26,59.56Z"/><path class="cls-1" d="M37.05,95.67a4.49,4.49,0,0,0,.48,2.16s-5.45,5.84-7.67,8.18c-2.76,2.92-5.51,5.86-8.27,8.78-1.5,1.59-3,3.16-4.52,4.74q-4.29,4.55-8.57,9.08-2.1,2.23-4.23,4.45l-2.52,2.62a1.2,1.2,0,0,1-.68.38c.1-1,.17-2,.3-3.05.37-2.88.72-5.77,1.17-8.64.55-3.59,1.14-7.17,1.82-10.74s1.45-6.91,2.15-10.37a1,1,0,0,1,.93-.92c4.9-1.08,9.8-2.19,14.7-3.28S37.05,95.67,37.05,95.67Z"/><path class="cls-1" d="M30.23,38.07A138.26,138.26,0,0,1,38.5,24.3c5.42,1.7,10.85,3.32,16.32,5.12-1.12,3.21.29,5,1.61,5.41l-7,27Z"/><path class="cls-1" d="M41.05,191.76c-1.82,2.41-4.28,4-6.45,5.83-2.33,2-5.16,3.07-7.86,4.4a9.73,9.73,0,0,1-2.52.54,15.78,15.78,0,0,1-2.35.39,15.79,15.79,0,0,1-2.56-.21c-.72-.09-1.43-.29-2.15-.39a8.1,8.1,0,0,1-3.11-1.6q3.68-14.17,7.35-28.28a1.5,1.5,0,0,0,1.08.05c1.38,1.46,3,3.23,4.42,4.67,1.91,2,3.84,3.91,5.76,5.87q3.86,3.94,7.69,7.9C40.59,191.17,40.79,191.45,41.05,191.76Z"/><path class="cls-1" d="M13.29,200.26a5.8,5.8,0,0,1-1.9-1.43c-.89-1.11-1.93-2.09-2.75-3.25A31.85,31.85,0,0,1,6.57,192a48.74,48.74,0,0,1-4.45-13.46c-.47-2.41-1-4.81-1.2-7.26,0-.34,0-.69-.05-1.09a4,4,0,0,1,.64-.28c4.59-1.21,10.46-2.68,15-3.91.17,2.08,1.5,5.31,4.05,6.25-.71,2.61-1.43,5.51-2.11,8.12q-2.14,8.23-4.3,16.47Z"/><path class="cls-1" d="M79.87,101.33c-12.42-2.43-21.45-4.15-34-6.6a3.44,3.44,0,0,0-.46-3.22c0-.14.2-.42.36-.57l8-7.24,6.08-5.51c.3-.28.62-.53,1-.87L80,101.15Z"/><path class="cls-1" d="M61.25,27.83Q72.68,21,84.08,14.13c.26-.16.5-.34.72-.5-.54-2.36-2-4.15-3.19-6.14-.38.09-.72.16-1,.26C75,9.29,69.42,10.84,63.84,12.36a1.3,1.3,0,0,0-1.07,1.07c-1,4-2.06,7.91-3.09,11.86-.13.53-.35,1.62-.35,1.62A3.25,3.25,0,0,1,61.25,27.83Z"/><path class="cls-1" d="M49.81,63.55c3.49,4.33,6.9,8.58,10.37,12.9-.69.66-1.33,1.29-2,1.89-2.61,2.42-5.24,4.84-7.86,7.25-1.71,1.58-3.82,3.54-5.55,5.09a4.78,4.78,0,0,0-1.73-.94s1.23-5.23,1.81-7.48L49.63,64C49.66,63.89,49.7,63.8,49.81,63.55Z"/><path class="cls-1" d="M24.32,172.27c.07,0,2.06-.49,4.37-3.06l19,14.89a41.18,41.18,0,0,1-5.89,7"/><path class="cls-1" d="M55.31,28.53,41.83,19.74a3.37,3.37,0,0,1,2.25-1.92c5.61-1.5,11.2-3.08,16.8-4.62.36-.1.72-.18,1.24-.3-.16.66-.28,1.18-.42,1.69L58.79,25.73c-.08.3-.32,1.09-.32,1.09A4.21,4.21,0,0,0,55.31,28.53Z"/><path class="cls-1" d="M43.79,17c.82-.93,1.66-1.84,2.44-2.8a55.12,55.12,0,0,1,7.43-7.38,31.65,31.65,0,0,1,9.09-5.53A6.34,6.34,0,0,1,65.33.56c-.17.69-.31,1.32-.47,1.94-.76,2.91-1.54,5.82-2.27,8.74a1.16,1.16,0,0,1-.92,1Q53,14.62,44.29,17.07c-.13,0-.26,0-.39.06Z"/><path class="cls-1" d="M81.19,6.73l-17.71,5c-.11-.81,1.12-5.86,2.73-11.28A9.64,9.64,0,0,1,70.65.1C73,.25,75,1.47,77,2.47a2,2,0,0,1,.49.39C78.54,3.91,79.6,5,80.64,6,80.81,6.19,80.93,6.4,81.19,6.73Z"/><path class="cls-1" d="M.26,162a86.66,86.66,0,0,1-.09-12l.23-.08,12.32,12.68a22.56,22.56,0,0,1-4.16-.11c-1.38-.08-2.77-.14-4.15-.21Z"/><path class="cls-1" d="M61.84,28.29c7.19-4.3,16-9.5,23.35-13.88.53,1.38,1,3.46,1.59,4.88C79,22.34,69.67,25.47,62,28.48Z"/><path class="cls-1" d="M.44,166.91c-.08-1.44-.15-2.74-.23-4.14,1.29.06,2.45.11,3.61.18,2.93.16,7.69.4,10.63.54-.19.22-.31.26.2,1.18Z"/><path class="cls-1" d="M50,181.12l-1,1.32L34.66,172.12l.14-.2Z"/><path class="cls-1" d="M49.62,27,38.86,23.69l1.38-2,9.47,5Z"/><path class="cls-1" d="M.72,169.33l-.1-1.67,13-2,.05.23Z"/><path class="cls-1" d="M49.21,25.69l-8.51-4.5.66-.93,8,5.26Z"/><path class="cls-1" d="M47.81,183l-.65-.43.14-.14.6.44Z"/><path class="cls-1" d="M58.3,31.68l.66-.77C59.1,31.59,59.1,31.59,58.3,31.68Z"/></g></g></svg>